<svg xmlns="http://www.w3.org/2000/svg" viewBox="0 0 32 32"><style>.st0{fill:#41D1FF}.st1{fill:#BD34FE}</style><path class="st0" d="M31.8 3.6c-.2-.5-.7-.8-1.2-.7l-24.5 4.6c-.5.1-.9.6-.9 1.1v17c0 .5.3 1 .8 1.2l24.5 4.6c.5.1 1-.2 1.2-.7l4.3-24.5c.2-.5-.2-1-.7-1.2z"/><path class="st1" d="M31.4 7.2c-.2-.5-.7-.8-1.2-.7l-24.5 4.6c-.5.1-.9.6-.9 1.1v17c0 .5.3 1 .8 1.2l24.5 4.6c.5.1 1-.2 1.2-.7l4.3-24.5c.2-.5-.2-1-.7-1.2z"/><path class="st0" d="M31.8 3.6c-.2-.5-.7-.8-1.2-.7l-24.5 4.6c-.5.1-.9.6-.9 1.1v17c0 .5.3 1 .8 1.2l24.5 4.6c.5.1 1-.2 1.2-.7l4.3-24.5c.2-.5-.2-1-.7-1.2z"/><path class="st1" d="M31.4 7.2c-.2-.5-.7-.8-1.2-.7l-24.5 4.6c-.5.1-.9.6-.9 1.1v17c0 .5.3 1 .8 1.2l24.5 4.6c.5.1 1-.2 1.2-.7l4.3-24.5c.2-.5-.2-1-.7-1.2z"/><path fill="#fff" d="M26.4 14.5l-3.1-2.1-3.1 2.1-1.2 4.1 3.1 2.1 3.1-2.1 1.2-4.1z"/><path fill="#fff" d="M9.5 8.4l-2.1 12.4 4.2 2.8 2.1-12.4-4.2-2.8z"/></svg>